<svg xmlns="http://www.w3.org/2000/svg" xmlns:xlink="http://www.w3.org/1999/xlink" viewBox="0,0,256,256" width="16px" height="16px" fill-rule="nonzero"><g fill="#ffffff" fill-rule="nonzero" stroke="none" stroke-width="1" stroke-linecap="butt" stroke-linejoin="miter" stroke-miterlimit="10" stroke-dasharray="" stroke-dashoffset="0" font-family="none" font-weight="none" font-size="none" text-anchor="none" style="mix-blend-mode: normal"><path d="M0,256v-256h256v256z" id="bgRectangle"></path></g><g fill="#000000" fill-rule="nonzero" stroke="none" stroke-width="1" stroke-linecap="butt" stroke-linejoin="miter" stroke-miterlimit="10" stroke-dasharray="" stroke-dashoffset="0" font-family="none" font-weight="none" font-size="none" text-anchor="none" style="mix-blend-mode: normal"><g transform="scale(0.5,0.5)"><path d="M56,16c-5.523,0 -10,4.477 -10,10v460c0,5.522 4.477,10 10,10h310c5.522,0 10,-4.478 10,-10v-30h60c16.542,0 30,-13.458 30,-30c0,-16.542 -13.458,-30 -30,-30h-60v-120c0,-5.522 -4.478,-10 -10,-10c-5.522,0 -10,4.478 -10,10v120h-130c-1.272,0 -2.53384,0.24284 -3.71484,0.71484l-50,20c-4.304,1.722 -6.87288,6.18288 -6.17188,10.79688c0.528,3.464 2.84988,6.44444 6.17188,7.77344l50,20c1.181,0.472 2.44284,0.71484 3.71484,0.71484h130v20h-290v-380h290c0,5.523 4.478,10 10,10c5.522,0 10,-4.477 10,-10v-70c0,-5.523 -4.478,-10 -10,-10zM66,36h290v40h-290zM76,46v20h20v-20zM106,46v20h20v-20zM136,46v20h20v-20zM96,116c-5.523,0 -10,4.477 -10,10v100c0,5.523 4.477,10 10,10h100c5.523,0 10,-4.477 10,-10v-100c0,-5.523 -4.477,-10 -10,-10zM266,116c-5.522,0 -10,4.477 -10,10c0,5.523 4.478,10 10,10h180c5.522,0 10,-4.477 10,-10c0,-5.523 -4.478,-10 -10,-10zM106,136h80v80h-80zM139.05664,144.92969l-24.30273,62.14258h15.76367l5.0664,-14.91797h20.73633l5.16211,14.91797h15.76367l-24.30273,-62.14258zM266,146c-5.522,0 -10,4.477 -10,10c0,5.523 4.478,10 10,10h180c5.522,0 10,-4.477 10,-10c0,-5.523 -4.478,-10 -10,-10zM146,162.47656l7.78711,19.07422h-15.76367zM266,176c-5.522,0 -10,4.477 -10,10c0,5.523 4.478,10 10,10h180c5.522,0 10,-4.477 10,-10c0,-5.523 -4.478,-10 -10,-10zM266,206c-5.522,0 -10,4.477 -10,10c0,5.523 4.478,10 10,10h180c5.522,0 10,-4.477 10,-10c0,-5.523 -4.478,-10 -10,-10zM266,236c-5.522,0 -10,4.477 -10,10c0,5.523 4.478,10 10,10h180c5.522,0 10,-4.477 10,-10c0,-5.523 -4.478,-10 -10,-10zM96,266c-5.523,0 -10,4.478 -10,10c0,5.522 4.477,10 10,10h230c5.522,0 10,-4.478 10,-10c0,-5.522 -4.478,-10 -10,-10zM96,326c-5.523,0 -10,4.478 -10,10c0,5.522 4.477,10 10,10h170c5.522,0 10,-4.478 10,-10c0,-5.522 -4.478,-10 -10,-10zM96,356c-5.523,0 -10,4.478 -10,10c0,5.522 4.477,10 10,10h170c5.522,0 10,-4.478 10,-10c0,-5.522 -4.478,-10 -10,-10zM227.92578,416h178.07422v20h-178.07422l-25,-10zM426,416h10c5.514,0 10,4.486 10,10c0,5.514 -4.486,10 -10,10h-10z"></path></g></g></svg>