<svg xmlns="http://www.w3.org/2000/svg" xmlns:xlink="http://www.w3.org/1999/xlink" viewBox="0,0,256,256" width="16px" height="16px" fill-rule="nonzero"><g fill="#ffffff" fill-rule="nonzero" stroke="none" stroke-width="1" stroke-linecap="butt" stroke-linejoin="miter" stroke-miterlimit="10" stroke-dasharray="" stroke-dashoffset="0" font-family="none" font-weight="none" font-size="none" text-anchor="none" style="mix-blend-mode: normal"><path d="M0,256v-256h256v256z" id="bgRectangle"></path></g><g fill="#000000" fill-rule="nonzero" stroke="none" stroke-width="1" stroke-linecap="butt" stroke-linejoin="miter" stroke-miterlimit="10" stroke-dasharray="" stroke-dashoffset="0" font-family="none" font-weight="none" font-size="none" text-anchor="none" style="mix-blend-mode: normal"><g transform="scale(8,8)"><path d="M5,5v22h22v-22zM7,7h18v18h-18zM15.9082,9c-3.919,0 -6.9082,2.97477 -6.9082,6.88477c0,3.133 1.9672,5.81481 4.7832,6.75781c0.365,0.064 0.49219,-0.1598 0.49219,-0.3418c0,-0.174 -0.00781,-1.14133 -0.00781,-1.73633c0,0 -1.98448,0.4272 -2.39648,-0.8418c0,0 -0.3232,-0.81725 -0.7832,-1.03125c0,0 -0.64313,-0.44355 0.04688,-0.43555c0,0 0.69889,0.05647 1.08789,0.73047c0.618,1.095 1.65555,0.77575 2.06055,0.59375c0.063,-0.452 0.24713,-0.76917 0.45313,-0.95117c-1.579,-0.174 -3.17383,-0.40419 -3.17383,-3.11719c0,-0.778 0.21402,-1.16602 0.66602,-1.66602c-0.072,-0.183 -0.31674,-0.94392 0.07226,-1.91992c0.595,-0.183 1.95117,0.76172 1.95117,0.76172c0.563,-0.151 1.17239,-0.23828 1.77539,-0.23828c0.603,0 1.21434,0.08728 1.77734,0.23828c0,0 1.35617,-0.94372 1.95117,-0.76172c0.388,0.984 0.14131,1.73792 0.07031,1.91992c0.452,0.5 0.73047,0.88902 0.73047,1.66602c0,2.728 -1.66614,2.94319 -3.24414,3.11719c0.262,0.222 0.48438,0.64259 0.48438,1.30859c0,0.952 -0.00781,2.13523 -0.00781,2.36523c0,0.182 0.12738,0.40284 0.48438,0.33984c2.815,-0.944 4.72656,-3.62481 4.72656,-6.75781c0,-3.91 -3.1728,-6.88477 -7.0918,-6.88477zM11.5625,18.48633c-0.056,-0.016 -0.10314,-0.00661 -0.11914,0.02539c-0.016,0.032 0.0065,0.07737 0.0625,0.10938c0.048,0.024 0.10314,0.01656 0.11914,-0.02344c0.016,-0.032 -0.0065,-0.08033 -0.0625,-0.11133zM11.81641,18.72266c-0.02675,-0.006 -0.05227,-0.00242 -0.07226,0.01758c-0.04,0.032 -0.03238,0.09439 0.01563,0.15039c0.048,0.04 0.11039,0.06344 0.15039,0.02344c0.04,-0.032 0.03238,-0.09439 -0.01562,-0.15039c-0.024,-0.02 -0.05138,-0.03502 -0.07812,-0.04102zM12.11328,19.08984c-0.02875,-0.01 -0.05998,-0.00819 -0.08398,0.00781c-0.048,0.032 -0.048,0.10497 0,0.16797c0.048,0.063 0.12016,0.0945 0.16016,0.0625c0.047,-0.032 0.047,-0.11183 0,-0.17383c-0.02,-0.032 -0.04742,-0.05445 -0.07617,-0.06445zM12.4375,19.48633c-0.03262,-0.004 -0.06203,0.00725 -0.08203,0.03125c-0.039,0.04 -0.02394,0.11783 0.03906,0.17383c0.063,0.064 0.14164,0.07339 0.18164,0.02539c0.04,-0.032 0.01694,-0.11978 -0.03906,-0.17578c-0.0315,-0.032 -0.06698,-0.05069 -0.09961,-0.05469zM12.98242,19.80273c-0.071,-0.016 -0.15783,0.0065 -0.17383,0.0625c-0.016,0.056 0.04014,0.12072 0.11914,0.13672c0.071,0.032 0.15783,-0.00164 0.17383,-0.05664c0.024,-0.055 -0.03214,-0.11858 -0.11914,-0.14258zM14.05273,19.82813c-0.079,0.016 -0.13495,0.07177 -0.12695,0.13477c0.008,0.055 0.08702,0.08631 0.16602,0.07031c0.087,-0.016 0.14295,-0.07095 0.12695,-0.12695c-0.008,-0.056 -0.08602,-0.08713 -0.16602,-0.07812zM13.5293,19.89063c-0.088,0 -0.15039,0.04752 -0.15039,0.10352c0,0.063 0.0632,0.11152 0.1582,0.10352c0.088,0 0.15039,-0.04752 0.15039,-0.10352c0,-0.064 -0.0782,-0.11152 -0.1582,-0.10352z"></path></g></g></svg>