<svg xmlns="http://www.w3.org/2000/svg" xmlns:xlink="http://www.w3.org/1999/xlink" viewBox="0,0,256,256" width="16px" height="16px" fill-rule="nonzero"><g transform="translate(4,4) scale(0.96875,0.96875)"><g fill="#ffffff" fill-rule="nonzero" stroke="none" stroke-width="1" stroke-linecap="butt" stroke-linejoin="miter" stroke-miterlimit="10" stroke-dasharray="" stroke-dashoffset="0" font-family="none" font-weight="none" font-size="none" text-anchor="none" style="mix-blend-mode: normal"><path d="M-4.12903,260.12903v-264.25806h264.25806v264.25806z" id="bgRectangle"></path></g><g fill="#000000" fill-rule="nonzero" stroke="none" stroke-width="1" stroke-linecap="butt" stroke-linejoin="miter" stroke-miterlimit="10" stroke-dasharray="" stroke-dashoffset="0" font-family="none" font-weight="none" font-size="none" text-anchor="none" style="mix-blend-mode: normal"><g transform="scale(4,4)"><path d="M7,0c-3.86417,0.00441 -6.99559,3.13583 -7,7v50c0.00441,3.86417 3.13583,6.99559 7,7h50c3.86417,-0.00441 6.99559,-3.13583 7,-7v-2h-2v2c-0.00331,2.76005 -2.23995,4.99669 -5,5h-50c-2.76005,-0.00331 -4.99669,-2.23995 -5,-5v-50c0.00331,-2.76005 2.23995,-4.99669 5,-5h2v-2zM11,0v2h2v-2zM15,0v2h42c4.351,0 5,5.639 5,9v42h2v-42c0,-9.928 -4.9,-11 -7,-11zM19,10c-4.96805,0.00606 -8.99394,4.03195 -9,9v12h2v-2h9.42969c-0.93967,3.31484 -0.27189,6.87847 1.80421,9.62819c2.0761,2.74972 5.32065,4.36783 8.7661,4.37181c6.07216,-0.00716 10.99284,-4.92784 11,-11c-0.00476,-1.01513 -0.15002,-2.02471 -0.43164,-3h9.43164v16c-0.00441,3.86417 -3.13583,6.99559 -7,7h-26c-3.86417,-0.00441 -6.99559,-3.13583 -7,-7v-8h-2v8c0.00606,4.96805 4.03195,8.99394 9,9h26c4.96805,-0.00606 8.99394,-4.03195 9,-9v-20h-2v2h-10.2168c-1.88458,-3.66632 -5.66089,-5.97119 -9.7832,-5.97119c-4.12232,0 -7.89863,2.30487 -9.7832,5.97119h-10.2168v-8c0.00441,-3.86417 3.13583,-6.99559 7,-7h26c3.86417,0.00441 6.99559,3.13583 7,7v4h2v-4c-0.00606,-4.96805 -4.03195,-8.99394 -9,-9zM45.83398,14.00391c-2.17062,0.09583 -3.86782,1.90687 -3.82272,4.07914c0.0451,2.17227 1.816,3.9113 3.98873,3.91696c2.20914,0 4,-1.79086 4,-4c-0.00013,-1.08959 -0.44473,-2.13197 -1.23106,-2.88623c-0.78632,-0.75425 -1.84631,-1.15509 -2.93496,-1.10987zM46,16c1.10457,0 2,0.89543 2,2c0,1.10457 -0.89543,2 -2,2c-1.10457,0 -2,-0.89543 -2,-2c0,-1.10457 0.89543,-2 2,-2zM32,23c4.96805,0.00606 8.99394,4.03195 9,9c0,4.97056 -4.02944,9 -9,9c-4.97056,0 -9,-4.02944 -9,-9c0,-4.97056 4.02944,-9 9,-9zM10,33v2h2v-2z"></path></g></g></g></svg>