<svg xmlns="http://www.w3.org/2000/svg" xmlns:xlink="http://www.w3.org/1999/xlink" viewBox="0,0,256,256" width="16px" height="16px" fill-rule="nonzero"><g fill="#fffefe" fill-rule="nonzero" stroke="none" stroke-width="1" stroke-linecap="butt" stroke-linejoin="miter" stroke-miterlimit="10" stroke-dasharray="" stroke-dashoffset="0" font-family="none" font-weight="none" font-size="none" text-anchor="none" style="mix-blend-mode: normal"><path d="M0,256v-256h256v256z" id="bgRectangle"></path></g><g fill="#000000" fill-rule="nonzero" stroke="none" stroke-width="1" stroke-linecap="butt" stroke-linejoin="miter" stroke-miterlimit="10" stroke-dasharray="" stroke-dashoffset="0" font-family="none" font-weight="none" font-size="none" text-anchor="none" style="mix-blend-mode: normal"><g transform="scale(5.12,5.12)"><path d="M13,3c-5.51133,0 -10,4.48867 -10,10v24c0,5.51133 4.48867,10 10,10h24c5.51133,0 10,-4.48867 10,-10v-24c0,-5.51223 -4.4888,-10 -10,-10zM13,5h24c4.4308,0 8,3.56823 8,8v24c0,4.43067 -3.56933,8 -8,8h-24c-4.43067,0 -8,-3.56933 -8,-8v-24c0,-4.43067 3.56933,-8 8,-8zM30.69336,14c-3.60183,0 -6.53906,2.94862 -6.53906,6.55469c0,0.02604 0.00947,0.05018 0.00977,0.07617c-3.81432,-0.50861 -7.1894,-2.39579 -9.50781,-5.24609c-0.20733,-0.25484 -0.5266,-0.39161 -0.85412,-0.36587c-0.32752,0.02573 -0.62151,0.21068 -0.7865,0.49478c-0.56275,0.96977 -0.88281,2.09962 -0.88281,3.29492c0,1.06493 0.29549,2.05623 0.74805,2.94922c-0.4623,0.09787 -0.79302,0.50597 -0.79297,0.97852v0.07031c0,1.9386 0.90395,3.61788 2.24609,4.82031c-0.27581,0.26466 -0.37662,0.66339 -0.25976,1.02734c0.55835,1.74139 1.85864,3.10674 3.49023,3.875c-1.30445,0.61208 -2.7009,1.05078 -4.24219,1.05078c-0.4108,0 -0.81013,-0.0214 -1.20117,-0.06836c-0.46298,-0.05658 -0.9036,0.2144 -1.06198,0.65311c-0.15838,0.43871 0.00752,0.92865 0.39987,1.18087c2.60376,1.67668 5.70739,2.6543 9.03125,2.6543c5.37137,0 9.61573,-2.26165 12.45313,-5.48828c2.8374,-3.22663 4.31055,-7.3903 4.31055,-11.3125c0,-0.11866 -0.00531,-0.23294 -0.00781,-0.34961c0.97442,-0.78387 1.89137,-1.64861 2.58594,-2.69141c0.23269,-0.35202 0.2194,-0.81222 -0.03323,-1.15022c-0.25263,-0.338 -0.69022,-0.48107 -1.09373,-0.35759c0.16313,-0.31734 0.39161,-0.5943 0.50195,-0.93945c0.12695,-0.3961 -0.00452,-0.82943 -0.33017,-1.08822c-0.32565,-0.25878 -0.77748,-0.28898 -1.13467,-0.07585c-0.87384,0.5194 -1.8541,0.86291 -2.87109,1.10156c-1.14326,-0.9767 -2.56515,-1.64844 -4.17773,-1.64844zM30.69336,16c1.31135,0 2.48463,0.55143 3.3125,1.4375c0.23609,0.25173 0.58529,0.36394 0.92383,0.29688c0.1548,-0.03057 0.27895,-0.12962 0.43164,-0.16602c-0.02246,0.01404 -0.03587,0.03909 -0.05859,0.05273c-0.38835,0.2331 -0.57156,0.69809 -0.44659,1.13344c0.12498,0.43535 0.52693,0.73236 0.97979,0.72398c-0.07041,0.05389 -0.11182,0.13942 -0.18359,0.19141c-0.27217,0.19639 -0.42767,0.51621 -0.41406,0.85156c0.0095,0.22542 0.01563,0.45226 0.01563,0.67773c0,3.4158 -1.3137,7.15282 -3.81055,9.99219c-2.49686,2.83937 -6.13549,4.80859 -10.95312,4.80859c-1.65707,0 -3.21559,-0.33446 -4.69922,-0.83984c1.84704,-0.39043 3.59522,-1.04328 5.02734,-2.16992c0.33164,-0.26157 0.4632,-0.70329 0.32871,-1.10369c-0.13449,-0.4004 -0.50602,-0.67314 -0.92832,-0.68147c-1.41686,-0.02573 -2.50971,-0.82858 -3.32422,-1.86719c0.30129,-0.039 0.61322,-0.0417 0.90039,-0.12109c0.44721,-0.12249 0.75157,-0.5363 0.73529,-0.9997c-0.01628,-0.46339 -0.34895,-0.85482 -0.80365,-0.94562c-1.65158,-0.33397 -2.94205,-1.57841 -3.41406,-3.1875c0.42581,0.10289 0.79918,0.33321 1.25195,0.34766c0.44561,0.01365 0.84644,-0.2693 0.98279,-0.69376c0.13635,-0.42445 -0.02471,-0.8879 -0.3949,-1.13632c-1.21929,-0.81696 -2.01953,-2.2048 -2.01953,-3.79297c0,-0.32754 0.17553,-0.58804 0.24024,-0.89453c2.84018,2.81798 6.61922,4.68887 10.875,4.9043c0.31404,0.01574 0.6172,-0.11713 0.81846,-0.35872c0.20126,-0.24159 0.27718,-0.56376 0.20497,-0.8698c-0.07791,-0.33032 -0.11719,-0.67525 -0.11719,-1.03516c0,-2.52793 2.02089,-4.55469 4.53906,-4.55469z"></path></g></g></svg>