<svg xmlns="http://www.w3.org/2000/svg" xmlns:xlink="http://www.w3.org/1999/xlink" viewBox="0,0,256,256" width="16px" height="16px" fill-rule="nonzero"><g fill="#ffffff" fill-rule="nonzero" stroke="none" stroke-width="1" stroke-linecap="butt" stroke-linejoin="miter" stroke-miterlimit="10" stroke-dasharray="" stroke-dashoffset="0" font-family="none" font-weight="none" font-size="none" text-anchor="none" style="mix-blend-mode: normal"><path d="M0,256v-256h256v256z" id="bgRectangle"></path></g><g fill="#000000" fill-rule="nonzero" stroke="none" stroke-width="1" stroke-linecap="butt" stroke-linejoin="miter" stroke-miterlimit="10" stroke-dasharray="" stroke-dashoffset="0" font-family="none" font-weight="none" font-size="none" text-anchor="none" style="mix-blend-mode: normal"><g transform="scale(5.12,5.12)"><path d="M4.8457,6c-1.57,0 -2.8457,1.2757 -2.8457,2.8457v9.1543h46v-9.1543c0,-1.57 -1.2757,-2.8457 -2.8457,-2.8457zM8,10c1.104,0 2,0.895 2,2c0,1.104 -0.896,2 -2,2c-1.104,0 -2,-0.896 -2,-2c0,-1.105 0.896,-2 2,-2zM14,10c1.104,0 2,0.895 2,2c0,1.104 -0.896,2 -2,2c-1.104,0 -2,-0.896 -2,-2c0,-1.105 0.896,-2 2,-2zM19,10h24v4h-24zM2,20v23c0,0.553 0.447,1 1,1h22.36523c-0.866,-1.821 -1.36523,-3.85 -1.36523,-6c0,-7.732 6.268,-14 14,-14c3.92,0 7.459,1.61494 10,4.21094v-8.21094zM38,26c-6.61557,0 -12,5.38443 -12,12c0,6.61557 5.38443,12 12,12c6.61557,0 12,-5.38443 12,-12c0,-6.61557 -5.38443,-12 -12,-12zM38,28c0.18073,0 0.43768,0.09556 0.79883,0.51563c0.36115,0.42007 0.75583,1.13029 1.08984,2.04883c0.1574,0.43285 0.3001,0.91851 0.42969,1.43555h-4.63672c0.12959,-0.51703 0.27229,-1.0027 0.42969,-1.43555c0.33402,-0.91854 0.7287,-1.62876 1.08984,-2.04883c0.36115,-0.42007 0.6181,-0.51562 0.79883,-0.51562zM34.82422,28.52148c-0.21621,0.41641 -0.41308,0.86791 -0.5918,1.35938c-0.23347,0.64205 -0.42619,1.36315 -0.59766,2.11914h-3.62891c1.20399,-1.60331 2.87461,-2.83005 4.81836,-3.47852zM41.17578,28.52148c1.94375,0.64846 3.61437,1.8752 4.81836,3.47852h-3.62891c-0.17146,-0.75599 -0.36418,-1.47709 -0.59766,-2.11914c-0.17871,-0.49146 -0.37559,-0.94296 -0.5918,-1.35937zM28.83398,34h4.44141c-0.12994,0.94927 -0.20708,1.95617 -0.24023,3h-4.98633c0.10457,-1.05836 0.37811,-2.06573 0.78516,-3zM35.28906,34h5.42188c0.13852,0.93242 0.21509,1.94839 0.25195,3h-5.92578c0.03686,-1.05161 0.11343,-2.06758 0.25195,-3zM42.72461,34h4.44141c0.40704,0.93427 0.68059,1.94164 0.78516,3h-4.98633c-0.03315,-1.04383 -0.1103,-2.05073 -0.24023,-3zM28.04883,39h4.98633c0.03315,1.04383 0.1103,2.05073 0.24023,3h-4.44141c-0.40704,-0.93427 -0.68059,-1.94164 -0.78516,-3zM35.03711,39h5.92578c-0.03686,1.05161 -0.11343,2.06758 -0.25195,3h-5.42188c-0.13852,-0.93242 -0.21509,-1.94839 -0.25195,-3zM42.96484,39h4.98633c-0.10457,1.05836 -0.37811,2.06573 -0.78516,3h-4.44141c0.12994,-0.94927 0.20708,-1.95617 0.24023,-3zM30.00586,44h3.62891c0.17146,0.75599 0.36418,1.47709 0.59766,2.11914c0.17871,0.49146 0.37559,0.94296 0.5918,1.35938c-1.94375,-0.64846 -3.61437,-1.8752 -4.81836,-3.47852zM35.68164,44h4.63672c-0.12959,0.51703 -0.27229,1.0027 -0.42969,1.43555c-0.33402,0.91854 -0.7287,1.62876 -1.08984,2.04883c-0.36115,0.42007 -0.6181,0.51563 -0.79883,0.51563c-0.18073,0 -0.43768,-0.09556 -0.79883,-0.51562c-0.36115,-0.42007 -0.75583,-1.13029 -1.08984,-2.04883c-0.1574,-0.43285 -0.3001,-0.91851 -0.42969,-1.43555zM42.36523,44h3.62891c-1.20399,1.60331 -2.87461,2.83005 -4.81836,3.47852c0.21621,-0.41641 0.41308,-0.86791 0.5918,-1.35937c0.23347,-0.64205 0.42619,-1.36315 0.59766,-2.11914z"></path></g></g></svg>